<svg width="32" height="32" viewBox="0 0 32 32" xmlns="http://www.w3.org/2000/svg" xmlns:xlink="http://www.w3.org/1999/xlink"><title>Shape</title><desc>Created using Figma</desc><use xlink:href="#a" fill="#FFF"/><defs><path id="a" fill-rule="evenodd" d="M32 10.005V10c0-.13-.047-.244-.11-.347-.01-.012-.005-.028-.014-.04L25.21.28c-.014-.02-.035-.027-.05-.043-.04-.05-.09-.09-.145-.126-.03-.018-.062-.033-.095-.05-.025-.01-.043-.027-.07-.035-.038-.01-.078-.004-.117-.008C24.71.015 24.69 0 24.667 0H7.333c-.024 0-.042.015-.066.016-.04.004-.078 0-.118.01-.027.007-.045.026-.07.035-.033.016-.063.03-.093.05-.058.037-.104.078-.147.127-.015.016-.036.024-.05.043L.125 9.613c-.01.012-.005.028-.013.04C.048 9.756 0 9.87 0 10v.005c.003.128.048.243.11.343.01.012.006.03.015.04L15.46 31.724c.027.037.068.057.1.088.028.026.05.05.08.07.108.07.227.12.36.12.133 0 .252-.05.36-.12.03-.02.053-.045.08-.07.033-.03.076-.05.103-.087L31.876 10.39c.01-.014.005-.03.015-.043.062-.1.107-.214.11-.342zM7.073 2.18l2.042 7.153H1.963l5.11-7.153zm14.046 8.487L16 28.872l-5.12-18.205h10.24zm-9.9-1.334L16 1.9l4.78 7.433h-9.56zm6-8h6.564L21.764 8.4 17.22 1.333zM10.237 8.4l-2.02-7.067h6.563L10.235 8.4zm-.74 2.267l4.84 17.206-12.37-17.206h7.53zm13.01 0h7.527L17.666 27.873l4.84-17.206zm.378-1.334l2.043-7.153 5.11 7.153h-7.153z"/></defs></svg>