<svg width="35" height="33" viewBox="0 0 35 33" xmlns="http://www.w3.org/2000/svg" xmlns:xlink="http://www.w3.org/1999/xlink"><title>Shape</title><desc>Created using Figma</desc><use xlink:href="#a" transform="translate(2.92 8.61)" fill="#FFF"/><use xlink:href="#b" transform="translate(5.83 18.652)" fill="#FFF"/><use xlink:href="#c" transform="translate(16.77 18.652)" fill="#FFF"/><use xlink:href="#d" transform="translate(0 12.913)" fill="#FFF"/><use xlink:href="#e" transform="translate(5.83 2.153)" fill="#FFF"/><use xlink:href="#f" transform="translate(16.04)" fill="#FFF"/><use xlink:href="#g" transform="translate(26.25 2.153)" fill="#FFF"/><use xlink:href="#d" transform="translate(32.08 12.913)" fill="#FFF"/><defs><path id="a" fill-rule="evenodd" d="M28.438 7.174h-.785c-.118-.948-.465-1.725-1.063-2.294-1.17-1.118-3.047-1.32-4.896-1.303C20.454 0 16.072 0 14.584 0c-1.49 0-5.872 0-7.11 3.577-1.827-.023-3.73.184-4.897 1.303-.598.57-.945 1.346-1.063 2.294H.73c-.403 0-.73.32-.73.717v15.784c0 .396.327.717.73.717h27.707c.403 0 .73-.32.73-.716V7.89c0-.395-.327-.716-.73-.716zM3.593 5.908C4.5 5.04 6.42 4.974 8 5.022c.353 0 .655-.225.73-.56.482-2.093 2.288-3.027 5.854-3.027 3.565 0 5.37.934 5.852 3.027.076.333.43.563.73.56 1.578-.043 3.5.018 4.407.888.324.307.52.73.614 1.264H2.98c.09-.537.29-.957.613-1.266zM27.71 22.956H1.457V8.61h26.25v14.346z"/><path id="b" fill-rule="evenodd" d="M22.604 0h-7.29c-.404 0-.73.32-.73.717v3.587H8.75V.717C8.75.32 8.423 0 8.02 0H.73C.326 0 0 .32 0 .717V10.76c0 .397.327.718.73.718h21.874c.403 0 .73-.32.73-.717V.718c0-.396-.327-.717-.73-.717zm-.73 10.043H1.46l-.002-8.608h5.834v3.587c0 .396.327.717.73.717h7.29c.403 0 .73-.322.73-.718V1.435h5.833v8.608z"/><path id="c" fill-rule="evenodd" d="M.73 2.87c.402 0 .728-.322.728-.718V.717C1.458.32 1.132 0 .728 0 .33 0 0 .32 0 .717v1.435c0 .396.327.718.73.718z"/><path id="d" fill-rule="evenodd" d="M2.188 0H.728C.33 0 0 .32 0 .717c0 .396.327.718.73.718h1.458c.402 0 .73-.322.73-.718C2.917.32 2.59 0 2.187 0z"/><path id="e" fill-rule="evenodd" d="M1.67 2.66c.143.138.33.208.516.208.187 0 .374-.07.517-.21.284-.28.284-.734 0-1.013L1.243.21C.96-.07.5-.07.214.21c-.284.28-.284.734 0 1.014L1.67 2.66z"/><path id="f" fill-rule="evenodd" d="M.73 3.587c.402 0 .728-.32.728-.717V.717C1.458.32 1.132 0 .728 0 .33 0 0 .32 0 .717V2.87c0 .396.327.717.73.717z"/><path id="g" fill-rule="evenodd" d="M.728 2.868c.187 0 .373-.07.516-.21l1.46-1.434c.283-.28.283-.734 0-1.014-.286-.28-.748-.28-1.032 0L.212 1.645c-.283.28-.283.734 0 1.014.143.138.33.208.516.208z"/></defs></svg>