<svg width="37" height="24" viewBox="0 0 37 24" xmlns="http://www.w3.org/2000/svg" xmlns:xlink="http://www.w3.org/1999/xlink"><title>Shape</title><desc>Created using Figma</desc><use xlink:href="#a" fill="#FFF"/><defs><path id="a" fill-rule="evenodd" d="M36.64 8.288c-.183-.232-.47-.35-.772-.293l-9.835 1.788L19.05.306c-.3-.408-.987-.408-1.288 0L10.78 9.783.943 7.995c-.297-.056-.59.06-.773.293-.182.234-.222.55-.1.82L6.472 23.51c.006.013.02.017.027.032.036.072.076.147.138.208.027.027.063.038.093.06.03.023.057.042.09.06.117.07.247.115.382.115H29.61c.133 0 .263-.046.383-.113.034-.018.06-.037.09-.06.03-.022.065-.033.092-.06.063-.063.1-.137.14-.21.006-.013.02-.018.027-.03L36.744 9.11c.118-.273.08-.588-.103-.822zm-18.235-6.16l5.876 7.973-5.875 1.07-5.875-1.067 5.875-7.974zm0 10.987l9.272 9.272H9.133l9.272-9.272zm-1.645-.618l-9.3 9.3L2.145 9.84l14.614 2.657zm12.59 9.3l-9.3-9.3L34.665 9.84 29.35 21.796z"/></defs></svg>