<svg width="138" height="24" viewBox="0 0 138 24" xmlns="http://www.w3.org/2000/svg" xmlns:xlink="http://www.w3.org/1999/xlink"><title>S</title><desc>Created using Figma</desc><g transform="translate(-1 -11)"><use xlink:href="#a" fill="#2F80ED"/><use xlink:href="#b" fill="#FFF"/></g><defs><path id="a" d="M106.28 32.368c.48.456 2.257 1.872 5.28 1.872 3.385 0 5.52-2.28 5.52-4.752 0-3.096-2.687-4.488-5.015-5.424-1.944-.792-2.832-1.56-2.832-2.688 0-.768.744-1.68 2.112-1.68 1.32 0 3.144 1.2 3.336 1.32.29.192.65 0 .84-.288l.913-1.368c.168-.24.096-.648-.144-.792-.48-.36-2.353-1.608-4.8-1.608-3.817 0-5.4 2.472-5.4 4.608 0 2.832 2.255 4.272 4.51 5.184 2.017.816 3.05 1.656 3.05 2.88 0 1.032-.937 1.848-2.185 1.848-1.56 0-3.504-1.416-3.624-1.488-.215-.168-.623-.168-.815.168l-.864 1.488c-.215.384-.095.504.12.72zm13.873 1.056c0 .312.24.576.576.576h2.11c.313 0 .577-.264.577-.576v-7.32l6.264 7.728c.05.072.193.168.433.168h2.616c.48 0 .67-.528.43-.84l-6.72-8.04 6.265-7.056c.312-.36.072-.864-.384-.864h-2.4c-.215 0-.36.12-.455.24l-6.048 6.816v-6.48c0-.312-.264-.576-.576-.576h-2.11c-.337 0-.577.264-.577.576v15.648zm15.656.12c0 .24.215.456.455.456h2.232c.24 0 .456-.216.456-.456V17.656c0-.24-.216-.456-.456-.456h-2.232c-.24 0-.456.216-.456.456v15.888z"/><path id="b" d="M1.408 33.136c.672.512 2.144 1.184 4.256 1.184 3.232 0 5.088-1.792 5.088-3.904 0-2.496-1.856-3.552-4.32-4.512-1.184-.48-1.76-.672-1.76-1.248 0-.416.32-.736 1.088-.736 1.216 0 2.656.672 2.656.672.256.096.608.064.768-.224l.8-1.632c.16-.32 0-.672-.288-.864-.672-.448-2.048-.992-3.936-.992-3.264 0-4.704 1.824-4.704 3.776 0 1.952 1.152 3.264 3.616 4.224 1.696.672 2.144 1.024 2.144 1.6 0 .544-.448.8-1.088.8-1.472 0-2.912-.768-2.912-.768-.288-.16-.608-.096-.736.224l-.864 1.728c-.128.256 0 .512.192.672zm11.176-5.568c0 3.68 2.944 6.752 6.56 6.752 3.616 0 6.56-3.072 6.56-6.752 0-3.616-2.944-6.688-6.56-6.688-3.616 0-6.56 3.072-6.56 6.688zm3.488 0c0-1.792 1.344-3.232 3.072-3.232 1.696 0 3.072 1.44 3.072 3.232 0 1.824-1.376 3.296-3.072 3.296-1.728 0-3.072-1.472-3.072-3.296zm12.473 5.824c0 .32.288.608.608.608H30.4c.29 0 .513-.256.61-.608l.32-.992s1.503 1.92 4.19 1.92c3.49 0 6.145-3.04 6.145-6.72 0-3.744-2.528-6.72-6.336-6.72-1.28 0-2.273.352-2.85.576v-9.248c0-.32-.287-.608-.607-.608h-2.72c-.32 0-.608.288-.608.608v21.184zm3.808-4.608v-3.712s.896-.736 2.496-.736c1.79 0 3.103 1.472 3.103 3.264 0 1.792-1.216 3.264-2.912 3.264-1.695 0-2.463-1.312-2.687-2.08zm11.2-1.216c0 3.68 2.944 6.752 6.56 6.752 3.616 0 6.56-3.072 6.56-6.752 0-3.616-2.944-6.688-6.56-6.688-3.616 0-6.56 3.072-6.56 6.688zm3.488 0c0-1.792 1.345-3.232 3.073-3.232 1.696 0 3.072 1.44 3.072 3.232 0 1.824-1.376 3.296-3.072 3.296-1.728 0-3.072-1.472-3.072-3.296zm12.474 5.824c0 .32.288.608.608.608h2.688c.32 0 .608-.288.608-.608V12.208c0-.32-.288-.608-.608-.608h-2.688c-.32 0-.608.288-.608.608v21.184zm6.79-5.792c0 3.68 2.72 6.72 6.56 6.72 2.08 0 3.712-.768 4.768-1.76.32-.256.256-.608.032-.832l-1.312-1.504c-.224-.256-.512-.192-.832 0-.576.416-1.504.8-2.496.8-1.856 0-2.976-1.472-3.072-2.784h8.192c.288 0 .576-.224.608-.544.032-.224.064-.64.064-.864 0-3.456-2.688-5.952-5.984-5.952-3.808 0-6.528 3.104-6.528 6.72zM70.24 26c.16-1.216 1.216-2.176 2.496-2.176 1.216 0 2.24.992 2.336 2.176H70.24zm13.93 7.968c.064.192.256.352.544.352h.16c.256 0 .416-.128.512-.288l4-7.456h.032l4.032 7.456c.096.16.256.288.512.288h.128c.32 0 .512-.16.576-.352l4-12.032c.16-.416-.128-.736-.576-.736h-2.08c-.352 0-.608.032-.736.384l-1.92 5.728h-.032l-3.232-6.144c-.096-.16-.224-.288-.512-.288h-.256c-.288 0-.448.16-.512.288l-3.264 6.144h-.032l-1.92-5.728c-.064-.224-.384-.384-.576-.384h-2.304c-.448 0-.736.32-.544.736l4 12.032zm15.983-1.696c0 1.08.887 1.968 1.967 1.968s1.993-.888 1.993-1.968-.912-1.992-1.993-1.992c-1.08 0-1.967.912-1.967 1.992z"/></defs></svg>