<svg width="138" height="24" viewBox="0 0 138 24" version="1.1" xmlns="http://www.w3.org/2000/svg" xmlns:xlink="http://www.w3.org/1999/xlink">
<title>S</title>
<desc>Created using Figma</desc>
<g id="Canvas" transform="translate(-4670 37)">
<g id="S">
<use xlink:href="#path0_fill" transform="translate(4669 -48)" fill="#2F80ED"/>
<use xlink:href="#path1_fill" transform="translate(4669 -48)" fill="#FFFFFF"/>
</g>
</g>
<defs>
<path id="path0_fill" d="M 106.281 32.368C 106.761 32.824 108.537 34.24 111.561 34.24C 114.945 34.24 117.081 31.96 117.081 29.488C 117.081 26.392 114.393 25 112.065 24.064C 110.121 23.272 109.233 22.504 109.233 21.376C 109.233 20.608 109.977 19.696 111.345 19.696C 112.665 19.696 114.489 20.896 114.681 21.016C 114.969 21.208 115.329 21.016 115.521 20.728L 116.433 19.36C 116.601 19.12 116.529 18.712 116.289 18.568C 115.809 18.208 113.937 16.96 111.489 16.96C 107.673 16.96 106.089 19.432 106.089 21.568C 106.089 24.4 108.345 25.84 110.601 26.752C 112.617 27.568 113.649 28.408 113.649 29.632C 113.649 30.664 112.713 31.48 111.465 31.48C 109.905 31.48 107.961 30.064 107.841 29.992C 107.625 29.824 107.217 29.824 107.025 30.16L 106.161 31.648C 105.945 32.032 106.065 32.152 106.281 32.368ZM 120.153 33.424C 120.153 33.736 120.393 34 120.729 34L 122.841 34C 123.153 34 123.417 33.736 123.417 33.424L 123.417 26.104L 129.681 33.832C 129.729 33.904 129.873 34 130.113 34L 132.729 34C 133.209 34 133.401 33.472 133.161 33.16L 126.441 25.12L 132.705 18.064C 133.017 17.704 132.777 17.2 132.321 17.2L 129.921 17.2C 129.705 17.2 129.561 17.32 129.465 17.44L 123.417 24.256L 123.417 17.776C 123.417 17.464 123.153 17.2 122.841 17.2L 120.729 17.2C 120.393 17.2 120.153 17.464 120.153 17.776L 120.153 33.424ZM 135.809 33.544C 135.809 33.784 136.025 34 136.265 34L 138.497 34C 138.737 34 138.953 33.784 138.953 33.544L 138.953 17.656C 138.953 17.416 138.737 17.2 138.497 17.2L 136.265 17.2C 136.025 17.2 135.809 17.416 135.809 17.656L 135.809 33.544Z"/>
<path id="path1_fill" d="M 1.408 33.136C 2.08 33.648 3.552 34.32 5.664 34.32C 8.896 34.32 10.752 32.528 10.752 30.416C 10.752 27.92 8.896 26.864 6.432 25.904C 5.248 25.424 4.672 25.232 4.672 24.656C 4.672 24.24 4.992 23.92 5.76 23.92C 6.976 23.92 8.416 24.592 8.416 24.592C 8.672 24.688 9.024 24.656 9.184 24.368L 9.984 22.736C 10.144 22.416 9.984 22.064 9.696 21.872C 9.024 21.424 7.648 20.88 5.76 20.88C 2.496 20.88 1.056 22.704 1.056 24.656C 1.056 26.608 2.208 27.92 4.672 28.88C 6.368 29.552 6.816 29.904 6.816 30.48C 6.816 31.024 6.368 31.28 5.728 31.28C 4.256 31.28 2.816 30.512 2.816 30.512C 2.528 30.352 2.208 30.416 2.08 30.736L 1.216 32.464C 1.088 32.72 1.216 32.976 1.408 33.136ZM 12.5842 27.568C 12.5842 31.248 15.5282 34.32 19.1442 34.32C 22.7603 34.32 25.7043 31.248 25.7043 27.568C 25.7043 23.952 22.7603 20.88 19.1442 20.88C 15.5282 20.88 12.5842 23.952 12.5842 27.568ZM 16.0722 27.568C 16.0722 25.776 17.4163 24.336 19.1442 24.336C 20.8403 24.336 22.2163 25.776 22.2163 27.568C 22.2163 29.392 20.8403 30.864 19.1442 30.864C 17.4163 30.864 16.0722 29.392 16.0722 27.568ZM 28.545 33.392C 28.545 33.712 28.833 34 29.153 34L 30.401 34C 30.689 34 30.913 33.744 31.009 33.392L 31.329 32.4C 31.329 32.4 32.833 34.32 35.521 34.32C 39.009 34.32 41.665 31.28 41.665 27.6C 41.665 23.856 39.137 20.88 35.329 20.88C 34.049 20.88 33.057 21.232 32.481 21.456L 32.481 12.208C 32.481 11.888 32.193 11.6 31.873 11.6L 29.153 11.6C 28.833 11.6 28.545 11.888 28.545 12.208L 28.545 33.392ZM 32.353 28.784L 32.353 25.072C 32.353 25.072 33.249 24.336 34.849 24.336C 36.641 24.336 37.953 25.808 37.953 27.6C 37.953 29.392 36.737 30.864 35.041 30.864C 33.345 30.864 32.577 29.552 32.353 28.784ZM 43.553 27.568C 43.553 31.248 46.497 34.32 50.113 34.32C 53.729 34.32 56.673 31.248 56.673 27.568C 56.673 23.952 53.729 20.88 50.113 20.88C 46.497 20.88 43.553 23.952 43.553 27.568ZM 47.041 27.568C 47.041 25.776 48.385 24.336 50.113 24.336C 51.809 24.336 53.185 25.776 53.185 27.568C 53.185 29.392 51.809 30.864 50.113 30.864C 48.385 30.864 47.041 29.392 47.041 27.568ZM 59.5137 33.392C 59.5137 33.712 59.8017 34 60.1218 34L 62.8098 34C 63.1297 34 63.4177 33.712 63.4177 33.392L 63.4177 12.208C 63.4177 11.888 63.1297 11.6 62.8098 11.6L 60.1218 11.6C 59.8017 11.6 59.5137 11.888 59.5137 12.208L 59.5137 33.392ZM 66.3037 27.6C 66.3037 31.28 69.0238 34.32 72.8637 34.32C 74.9438 34.32 76.5758 33.552 77.6318 32.56C 77.9517 32.304 77.8877 31.952 77.6637 31.728L 76.3518 30.224C 76.1278 29.968 75.8398 30.032 75.5197 30.224C 74.9438 30.64 74.0157 31.024 73.0237 31.024C 71.1677 31.024 70.0477 29.552 69.9517 28.24L 78.1438 28.24C 78.4318 28.24 78.7198 28.016 78.7517 27.696C 78.7837 27.472 78.8158 27.056 78.8158 26.832C 78.8158 23.376 76.1278 20.88 72.8317 20.88C 69.0238 20.88 66.3037 23.984 66.3037 27.6ZM 70.2397 26C 70.3998 24.784 71.4557 23.824 72.7358 23.824C 73.9517 23.824 74.9757 24.816 75.0717 26L 70.2397 26ZM 84.1698 33.968C 84.2337 34.16 84.4257 34.32 84.7137 34.32L 84.8738 34.32C 85.1297 34.32 85.2898 34.192 85.3857 34.032L 89.3857 26.576L 89.4178 26.576L 93.4497 34.032C 93.5457 34.192 93.7058 34.32 93.9618 34.32L 94.0898 34.32C 94.4097 34.32 94.6018 34.16 94.6657 33.968L 98.6658 21.936C 98.8258 21.52 98.5378 21.2 98.0898 21.2L 96.0098 21.2C 95.6577 21.2 95.4017 21.232 95.2738 21.584L 93.3538 27.312L 93.3217 27.312L 90.0898 21.168C 89.9937 21.008 89.8658 20.88 89.5778 20.88L 89.3217 20.88C 89.0337 20.88 88.8737 21.04 88.8097 21.168L 85.5458 27.312L 85.5138 27.312L 83.5938 21.584C 83.5298 21.36 83.2097 21.2 83.0178 21.2L 80.7138 21.2C 80.2657 21.2 79.9778 21.52 80.1697 21.936L 84.1698 33.968ZM 100.153 32.272C 100.153 33.352 101.04 34.24 102.12 34.24C 103.201 34.24 104.113 33.352 104.113 32.272C 104.113 31.192 103.201 30.28 102.12 30.28C 101.04 30.28 100.153 31.192 100.153 32.272Z"/>
</defs>
</svg>
